<svg xmlns="http://www.w3.org/2000/svg" viewBox="0 0 50 50" enable-background="new 0 0 50 50">
  <path d="M25.1 15.4c-2.1 0-4 .8-5.6 2.3l1.4 1.9c1.2-1.1 2.4-1.7 3.7-1.7 1.3 0 2.1.7 2.1 1.9 0 2.8-5.6 4-5.6 7.3 0 1 .4 1.9 1.2 2.7l2.4-1.2c-.3-.4-.6-.8-.6-1.4 0-2 5.9-3.6 5.9-7.7 0-2.4-1.8-4.1-4.9-4.1zm-1.5 16c-1 0-1.8.8-1.8 1.9 0 1.1.8 1.9 1.8 1.9s1.8-.8 1.8-1.9c.1-1.1-.7-1.9-1.8-1.9zm.9-25c-10.5 0-19 8.5-19 19s8.5 19 19 19 19-8.5 19-19c.1-10.5-8.5-19-19-19zm0 35.7c-9.2 0-16.6-7.5-16.6-16.6 0-9.2 7.5-16.6 16.6-16.6s16.6 7.5 16.6 16.6c.1 9.1-7.4 16.6-16.6 16.6z"/>
</svg>
